<?xml version="1.0" encoding="UTF-8"?>
<svg width="478" height="472" xmlns="http://www.w3.org/2000/svg" xmlns:svg="http://www.w3.org/2000/svg">
 <defs>
  <linearGradient id="svg_5" x1="0" y1="0" x2="1" y2="1">
   <stop offset="0" stop-color="#ffffe0"/>
   <stop offset="1" stop-color="#edc39c"/>
  </linearGradient>
  <linearGradient id="svg_10" x1="0.57031" y1="0.78125" x2="0.28906" y2="0.41406">
   <stop offset="0" stop-color="#ff7f00"/>
   <stop offset="1" stop-color="#ffff00"/>
  </linearGradient>
  <linearGradient id="svg_18" x1="0.37891" y1="0.35938" x2="1" y2="1">
   <stop offset="0" stop-color="#e0e0e0"/>
   <stop offset="1" stop-color="#666666"/>
  </linearGradient>
 </defs>
 <g>
  <title>Layer 1</title>
  <path d="m68.820313,270.046875l-22.000004,-33l17,-35l34.000004,2l25,15l7,-35l28,-16l25,12l100,102l21,23l-15,35l-36,9l20,49l-31,24l-49,-17l-1,31l-33,21l-31,-19l-13,-35l-30,21l-30.000004,-9l-5,-35l16.000004,-31l-32.000004,-6l-14.999998,-19l3,-36l47.000002,-18z" id="svg_19" fill="#ffffff"/>
  <path fill="#1a171a" fill-rule="nonzero" id="path2902" d="m158.964523,155.03685c-25.020706,0 -45.370773,20.351212 -45.370773,45.377502c0,0.722168 0.017937,1.439896 0.047096,2.156448c-0.493385,-0.536041 -0.993546,-1.060852 -1.506027,-1.584518c-8.560768,-8.555191 -19.959816,-13.284134 -32.074318,-13.284134c-12.121223,0 -23.520271,4.723343 -32.08778,13.296463c-17.693472,17.694641 -17.693472,46.461899 0,64.174454c0.518089,0.516968 1.0485,1.012604 1.590149,1.506012c-0.728909,-0.035858 -1.457821,-0.048218 -2.192341,-0.048218c-25.02071,0 -45.371889,20.351166 -45.371889,45.377472c0,25.013977 20.351191,45.365173 45.371889,45.365173c0.728912,0 1.452209,-0.01236 2.1744,-0.048309c-0.529301,0.482239 -1.054119,0.988037 -1.565468,1.493683c-17.700212,17.689087 -17.700212,46.486542 -0.006283,64.186768c8.57872,8.567474 19.966549,13.278503 32.08778,13.278503c12.114502,0 23.501198,-4.711029 32.074333,-13.278503c0.512466,-0.516937 1.018227,-1.048462 1.506027,-1.578949c-0.029152,0.712158 -0.047089,1.446716 -0.047089,2.157593c0,25.015106 20.350075,45.377472 45.370766,45.377472c25.013977,0 45.370789,-20.362396 45.370789,-45.377472c0,-0.722198 -0.016891,-1.445526 -0.052658,-2.181122c0.481049,0.529327 0.975616,1.048492 1.486969,1.56662c8.579819,8.579773 19.977753,13.290802 32.105698,13.290802c12.110031,0 23.51358,-4.711029 32.068695,-13.278503c17.689056,-17.700104 17.689056,-46.485352 0,-64.174408c-0.505768,-0.494598 -1.011414,-1.000336 -1.54306,-1.482483c0.699829,0.03595 1.423157,0.048309 2.169922,0.048309c25.015137,0 45.352844,-20.351257 45.352844,-45.365173c0,-25.026306 -20.337738,-45.377472 -45.352844,-45.377472c-0.746826,0 -1.470093,0.01236 -2.193451,0.048218c0.531525,-0.493408 1.060822,-0.989044 1.591278,-1.506012c8.555237,-8.555206 13.278503,-19.941864 13.278503,-32.075455c0,-12.12793 -4.723358,-23.520279 -13.303192,-32.093399c-8.555145,-8.56076 -19.958649,-13.284103 -32.068695,-13.284103c-12.121216,0 -23.520248,4.723343 -32.087769,13.284103c-0.511368,0.518097 -1.018219,1.048508 -1.504898,1.578949c0.035858,-0.723312 0.052658,-1.439911 0.052658,-2.168808c0,-25.026291 -20.356812,-45.377502 -45.370789,-45.377502m0,20.719009c13.616074,0 24.658508,11.031219 24.658508,24.658493c0,6.627487 -2.651001,12.621368 -6.910095,17.049789l0,51.674194l36.539749,-36.535233c0.12001,-6.14418 2.482773,-12.246857 7.181458,-16.946671c4.813049,-4.813049 11.120941,-7.224091 17.441162,-7.224091c6.302277,0 12.615768,2.411041 17.435516,7.224091c9.621658,9.632874 9.621658,25.249481 0,34.876694c-4.699768,4.68634 -10.808029,7.049149 -16.953339,7.181473l-36.534103,36.533051l51.667435,0c4.428391,-4.25351 10.429031,-6.90451 17.080063,-6.90451c13.59137,0 24.629333,11.037994 24.629333,24.665253c0,13.616058 -11.037964,24.665192 -24.629333,24.665192c-6.651062,0 -12.651672,-2.66333 -17.080063,-6.916809l-51.648361,0l36.502731,36.50943c6.169937,0.144653 12.265869,2.505249 16.965668,7.206207c9.621597,9.614868 9.621597,25.231506 0,34.857574c-4.808548,4.819794 -11.13327,7.229736 -17.435562,7.229736c-6.32019,0 -12.633698,-2.409912 -17.447845,-7.229736c-4.68074,-4.687439 -7.048035,-10.795715 -7.174744,-16.94101l-36.539749,-36.534119l0,51.667389c4.259079,4.44635 6.91011,10.434662 6.91011,17.062103c0,13.627289 -11.042435,24.664154 -24.658508,24.664154c-13.621674,0 -24.658493,-11.036896 -24.658493,-24.664154c0,-6.627441 2.645401,-12.615753 6.903351,-17.062103l0,-51.667389l-36.538635,36.546448c-0.126717,6.144135 -2.48838,12.264771 -7.181473,16.940979c-4.814156,4.818756 -11.122055,7.229767 -17.428818,7.229767c-6.314606,0 -12.622498,-2.411011 -17.435551,-7.229767c-9.632839,-9.628326 -9.632839,-25.242737 0,-34.869873c4.680729,-4.67627 10.790119,-7.050262 16.941013,-7.182617l36.532997,-36.53302l-51.666321,0c-4.440746,4.253479 -10.429016,6.916809 -17.062107,6.916809c-13.616062,0 -24.652882,-11.049133 -24.652882,-24.665192c0,-13.627258 11.036819,-24.665253 24.652882,-24.665253c6.633091,0 12.621361,2.651001 17.062107,6.90451l51.685371,0l-36.552071,-36.54538c-6.145271,-0.120026 -12.25354,-2.494034 -16.94775,-7.193787c-9.62611,-9.614929 -9.62611,-25.237137 0,-34.86441c4.81419,-4.813049 11.127689,-7.22406 17.442272,-7.22406c6.306763,0 12.614647,2.411011 17.428833,7.22406c4.699776,4.693069 7.060333,10.80246 7.181435,16.947769l36.538605,36.533005l0,-51.660751c-4.25795,-4.428406 -6.903336,-10.422287 -6.903336,-17.049789c0,-13.627258 11.036819,-24.658478 24.658478,-24.658478"/>
  <path d="m188.820313,210.046875l16,-47l155,-147.999995l107,100.000003l-158,156.999992l-44,12l-76,-74.000031l0,0.000015l0,0.000015z" id="svg_6" fill="url(#svg_10)" stroke="#ffffff" stroke-width="0"/>
  <path d="m335.570313,40.296879c-11.5,39.750004 55.5,115.249996 109.25,98.749996l21,-20.999985l-103,-101l-27.25,23.25l0,-0.000011z" id="svg_11" fill="url(#svg_18)" stroke="#ffffff" stroke-width="0"/>
  <rect x="272.80404" y="20.76382" width="42.35197" height="232.66835" id="svg_13" fill="#ffffff" stroke="#ffffff" stroke-width="0" transform="rotate(45.9094, 293.98, 137.1)" opacity="0.4"/>
  <rect x="282.80404" y="22.76382" width="14" height="232.66835" fill="#ffffff" stroke="#ffffff" stroke-width="0" transform="rotate(45.9094, 289.805, 139.1)" opacity="0.4" id="svg_14"/>
  <ellipse cx="415.13312" cy="64.38066" id="svg_12" fill="#ea7598" stroke="#ffffff" stroke-width="0" rx="67.79251" ry="34.82026" transform="rotate(39.4735, 415.133, 64.379)"/>
  <path d="m212.070313,166.046875c-8.5,47 36.25,103.75 99.25,96.75l-152.5,53.25l53.25,-150z" id="svg_4" fill="url(#svg_5)" stroke="#ffffff" stroke-width="0"/>
  <path d="m181.320313,242.546875c0.5,20.5 26.75,45 46.75,48.5l-66.25,20l19.5,-68.5z" id="svg_3" fill="#27382f" stroke="#ffffff" stroke-width="0"/>
 </g>
 <g>
  <title>Layer 2</title>
  <path d="m152.820313,317.046875l51,-152l157,-152.999995c40,-12.00001 118,47.999999 105,105.000003l-157,152.999992l-156,47z" id="svg_1" fill="none" stroke="#800000" stroke-width="17"/>
  <ellipse fill="#0000FF" stroke="#000000" stroke-width="5" cx="343" cy="357" id="svg_2" rx="91" ry="51"/>
  <ellipse fill="#0000FF" stroke="#000000" stroke-width="5" cx="262" cy="67" id="svg_7" rx="98" ry="38"/>
  <ellipse fill="#0000FF" stroke="#000000" stroke-width="5" cx="218" cy="164" id="svg_8" rx="74" ry="41"/>
  <path id="svg_9" d="m-267,144c0,0 244,-143 310,-39c66,104 -163,-40 -121,-11c42,29 68,40 68,40c0,0 -199,2 -199,2c0,0 50,11 50,11c0,0 108,-10 108,-11c0,-1 52,-12 52,-12c0,0 -34,-35 -34,-35c0,0 58,53 58,53c0,0 42,75 42,75c0,0 -334,-73 -334,-73z" stroke-width="5" stroke="#000000" fill="#0000FF"/>
 </g>
</svg>